<svg width="80" height="84" viewBox="0 0 80 84" fill="none" xmlns="http://www.w3.org/2000/svg">
<path opacity="0.5" d="M60 35.9999L36 59.9999M36 35.9999H36.04M60 59.9999H60.04M15.4 34.4799C14.8162 31.85 14.9059 29.1153 15.6607 26.5293C16.4155 23.9432 17.811 21.5897 19.7179 19.6868C21.6248 17.7839 23.9813 16.3933 26.5689 15.6439C29.1565 14.8945 31.8914 14.8106 34.52 15.3999C35.9669 13.1371 37.9601 11.2749 40.3158 9.98504C42.6716 8.69515 45.3142 8.01904 48 8.01904C50.6858 8.01904 53.3284 8.69515 55.6842 9.98504C58.04 11.2749 60.0332 13.1371 61.48 15.3999C64.1127 14.808 66.8523 14.8915 69.444 15.6428C72.0357 16.394 74.3954 17.7885 76.3034 19.6965C78.2115 21.6046 79.606 23.9642 80.3572 26.5559C81.1084 29.1476 81.1919 31.8872 80.6 34.5199C82.8628 35.9667 84.725 37.9599 86.0149 40.3157C87.3048 42.6715 87.9809 45.3141 87.9809 47.9999C87.9809 50.6857 87.3048 53.3283 86.0149 55.6841C84.725 58.0399 82.8628 60.0331 80.6 61.4799C81.1894 64.1086 81.1055 66.8435 80.3561 69.4311C79.6067 72.0187 78.2161 74.3751 76.3132 76.282C74.4103 78.1889 72.0567 79.5845 69.4707 80.3393C66.8847 81.0941 64.1499 81.1837 61.52 80.5999C60.0751 82.8714 58.0803 84.7415 55.7205 86.0372C53.3607 87.3328 50.7121 88.0121 48.02 88.0121C45.3279 88.0121 42.6793 87.3328 40.3195 86.0372C37.9597 84.7415 35.965 82.8714 34.52 80.5999C31.8914 81.1892 29.1565 81.1053 26.5689 80.3559C23.9813 79.6065 21.6248 78.2159 19.7179 76.313C17.811 74.4101 16.4155 72.0566 15.6607 69.4705C14.9059 66.8845 14.8162 64.1498 15.4 61.5199C13.1199 60.0769 11.2417 58.0806 9.94023 55.7168C8.63877 53.3529 7.9563 50.6983 7.9563 47.9999C7.9563 45.3015 8.63877 42.6469 9.94023 40.283C11.2417 37.9192 13.1199 35.9229 15.4 34.4799Z" stroke="url(#paint0_linear_1851_31905)" stroke-width="4" stroke-linecap="round" stroke-linejoin="round"/>
<defs>
<linearGradient id="paint0_linear_1851_31905" x1="47.9686" y1="8.01904" x2="47.9686" y2="88.0121" gradientUnits="userSpaceOnUse">
<stop stop-color="#54B342" stop-opacity="0.8"/>
<stop offset="1" stop-color="#244D1C" stop-opacity="0.2"/>
</linearGradient>
</defs>
</svg>
