<svg width="212" height="89" viewBox="0 0 212 89" fill="none" xmlns="http://www.w3.org/2000/svg">
<path d="M-12.1673 61.3314L-13.834 62.8123V89H226.166V1.04743L224.499 1.00948C222.833 0.971529 219.499 0.895626 216.166 4.15319C212.833 7.41075 209.499 14.0018 206.166 17.7099C202.833 21.418 199.499 22.2432 196.166 18.0276C192.833 13.812 189.499 4.55566 186.166 3.97473C182.833 3.3938 179.499 11.4883 176.166 14.0557C172.833 16.6232 169.499 13.6635 166.166 15.5158C162.833 17.3681 159.499 24.0323 156.166 24.666C152.833 25.2998 149.499 19.903 146.166 19.61C142.833 19.317 139.499 24.1278 136.166 27.0433C132.833 29.9589 129.499 30.9792 126.166 32.3568C122.833 33.7344 119.499 35.4694 116.166 31.9303C112.833 28.3913 109.499 19.5782 106.166 16.9621C102.833 14.346 99.4993 17.9269 96.166 19.8323C92.8327 21.7376 89.4993 21.9673 86.166 24.372C82.8327 26.7767 79.4994 31.3564 76.166 34.8673C72.8327 38.3783 69.4993 40.8206 66.166 39.5503C62.8327 38.2801 59.4993 33.2974 56.166 33.7139C52.8327 34.1304 49.4994 39.9461 46.166 45.4717C42.8327 50.9972 39.4993 56.2325 36.166 57.5176C32.8327 58.8027 29.4993 56.1376 26.166 56.1357C22.8327 56.1338 19.4993 58.7951 16.166 59.1374C12.8327 59.4796 9.49935 57.5027 6.16602 56.2478C2.83268 54.9928 -0.500651 54.4599 -3.83398 55.6743C-7.16732 56.8887 -10.5007 59.8505 -12.1673 61.3314Z" fill="url(#paint0_linear_1831_13211)"/>
<path d="M-13.8338 62.8123L-12.1671 61.3314C-10.5005 59.8505 -7.16713 56.8887 -3.8338 55.6743C-0.500468 54.4599 2.83287 54.9928 6.1662 56.2478C9.49953 57.5027 12.8329 59.4796 16.1662 59.1374C19.4995 58.7951 22.8329 56.1338 26.1662 56.1357C29.4995 56.1376 32.8329 58.8027 36.1662 57.5176C39.4995 56.2325 42.8329 50.9972 46.1662 45.4717C49.4995 39.9461 52.8329 34.1304 56.1662 33.7139C59.4995 33.2974 62.8329 38.2801 66.1662 39.5503C69.4995 40.8206 72.8329 38.3783 76.1662 34.8673C79.4995 31.3564 82.8329 26.7767 86.1662 24.372C89.4995 21.9673 92.8329 21.7376 96.1662 19.8323C99.4995 17.9269 102.833 14.346 106.166 16.9621C109.5 19.5782 112.833 28.3913 116.166 31.9303C119.5 35.4694 122.833 33.7344 126.166 32.3568C129.5 30.9792 132.833 29.9589 136.166 27.0433C139.5 24.1278 142.833 19.317 146.166 19.61C149.5 19.903 152.833 25.2998 156.166 24.666C159.5 24.0323 162.833 17.3681 166.166 15.5158C169.5 13.6635 172.833 16.6232 176.166 14.0557C179.5 11.4883 182.833 3.3938 186.166 3.97473C189.5 4.55566 192.833 13.812 196.166 18.0276C199.5 22.2432 202.833 21.418 206.166 17.7099C209.5 14.0018 212.833 7.41075 216.166 4.15319C219.5 0.895626 222.833 0.971529 224.5 1.00948L226.166 1.04743" stroke="#3B7339"/>
<defs>
<linearGradient id="paint0_linear_1831_13211" x1="191.911" y1="-24.5237" x2="191.911" y2="88.9385" gradientUnits="userSpaceOnUse">
<stop stop-color="#59D67C" stop-opacity="0.25"/>
<stop offset="1" stop-color="#59D67C" stop-opacity="0"/>
</linearGradient>
</defs>
</svg>
