<svg xmlns="http://www.w3.org/2000/svg" width="104" height="96" viewBox="0 0 104 96" fill="none">
  <path opacity="0.5" d="M64 42.6667V112M64 42.6667C62.0708 34.7168 58.7491 27.9203 54.4679 23.1635C50.1868 18.4067 45.145 15.9104 40 16C36.4638 16 33.0724 17.4048 30.5719 19.9053C28.0714 22.4057 26.6667 25.7971 26.6667 29.3333C26.6667 32.8696 28.0714 36.261 30.5719 38.7614C33.0724 41.2619 36.4638 42.6667 40 42.6667M64 42.6667C65.9292 34.7168 69.251 27.9203 73.5321 23.1635C77.8132 18.4067 82.855 15.9104 88 16C91.5362 16 94.9276 17.4048 97.4281 19.9053C99.9286 22.4057 101.333 25.7971 101.333 29.3333C101.333 32.8696 99.9286 36.261 97.4281 38.7614C94.9276 41.2619 91.5362 42.6667 88 42.6667M101.333 64V101.333C101.333 104.162 100.21 106.875 98.2091 108.876C96.2088 110.876 93.4956 112 90.6667 112H37.3333C34.5044 112 31.7912 110.876 29.7909 108.876C27.7905 106.875 26.6667 104.162 26.6667 101.333V64M21.3333 42.6667H106.667C109.612 42.6667 112 45.0545 112 48V58.6667C112 61.6122 109.612 64 106.667 64H21.3333C18.3878 64 16 61.6122 16 58.6667V48C16 45.0545 18.3878 42.6667 21.3333 42.6667Z" stroke="url(#paint0_linear_95_49540)" stroke-width="6" stroke-linecap="round" stroke-linejoin="round"/>
  <defs>
    <linearGradient id="paint0_linear_95_49540" x1="64" y1="15.9977" x2="64" y2="112" gradientUnits="userSpaceOnUse">
      <stop stop-color="#54B342" stop-opacity="0.8"/>
      <stop offset="1" stop-color="#244D1C" stop-opacity="0.2"/>
    </linearGradient>
  </defs>
</svg>