<svg xmlns="http://www.w3.org/2000/svg" width="20" height="20" viewBox="0 0 20 20" fill="none">
  <path d="M12.4414 12.8477H12.4441C14.4125 12.8477 15.9972 11.2415 15.9972 9.27364L15.9972 5.62666H17.4983L17.4983 9.27364C17.4983 12.0962 15.2294 14.3733 12.4441 14.3733H11.738V12.8455L12.4414 12.8477ZM10.3838 11.3568C10.3223 11.4951 10.2936 11.6418 10.2943 11.7869C10.1792 11.8553 10.0735 11.9522 9.988 12.0827C9.0655 13.49 7.66705 14.3733 5.93352 14.3733H5.83126L5.83549 12.8558C5.83549 12.8531 5.83549 12.8504 5.83549 12.8477H5.93352C7.96877 12.8477 9.32198 11.1711 9.32198 9.27364V5.62666H10.8231L10.8231 9.27364C10.8231 10.0175 10.6657 10.722 10.3838 11.3568L11.1469 11.6958L10.3838 11.3568ZM4.16734 11.2001C3.22473 10.8442 2.5018 9.94581 2.50163 9.00345C2.50163 9.00334 2.50163 9.00323 2.50163 9.00312L2.50202 8.54935H4.16772L4.16733 9.0024L4.16732 9.01208L4.16736 9.01376L4.16734 11.2001Z" fill="white" stroke="#081210" stroke-width="1.67"/>
</svg>