<svg width="126" height="120" viewBox="0 0 126 120" fill="none" xmlns="http://www.w3.org/2000/svg">
<g opacity="0.7">
<path fill-rule="evenodd" clip-rule="evenodd" d="M27.3644 107.316C36.7322 73.1802 72.0869 38.2428 106.331 29.281L109.268 28.5126C121.688 25.2621 132.257 25.8752 140.236 29.6056L141.415 27.9023L145.183 32.5607C155.593 40.3601 159.523 55.1023 154.311 74.0937C144.943 108.229 109.588 143.167 75.344 152.128L72.4075 152.897C38.1631 161.859 17.9966 141.451 27.3644 107.316Z" fill="url(#paint0_linear_1089_55036)"/>
<path fill-rule="evenodd" clip-rule="evenodd" d="M25.9601 104.859C35.3279 70.7231 70.6826 35.7858 104.927 26.824L107.863 26.0555C120.204 22.826 130.716 23.4104 138.677 27.0768L140.269 24.7422L146.831 32.7778C147.934 33.9044 148.935 35.1303 149.831 36.4507L150.014 36.675V36.7242C155.531 45.073 156.893 57.1121 152.907 71.6367C143.539 105.772 108.184 140.71 73.9397 149.671L71.0032 150.44C36.7588 159.402 16.5923 138.994 25.9601 104.859Z" fill="url(#paint1_linear_1089_55036)"/>
<rect width="128.186" height="131.222" rx="64.0931" transform="matrix(-0.264645 0.964346 0.96742 -0.253175 35.9043 36.3828)" fill="url(#paint2_linear_1089_55036)"/>
<rect x="0.584195" y="0.591173" width="127.736" height="130.424" rx="63.8679" transform="matrix(-0.264645 0.964346 0.96742 -0.253175 34.411 33.6189)" fill="url(#paint3_radial_1089_55036)"/>
<rect x="0.584195" y="0.591173" width="127.736" height="130.424" rx="63.8679" transform="matrix(-0.264645 0.964346 0.96742 -0.253175 34.411 33.6189)" stroke="url(#paint4_linear_1089_55036)" stroke-width="1.66253"/>
<rect x="0.584195" y="0.591173" width="127.736" height="130.424" rx="63.8679" transform="matrix(-0.264645 0.964346 0.96742 -0.253175 34.411 33.6189)" stroke="url(#paint5_linear_1089_55036)" stroke-width="1.66253"/>
<rect x="0.584195" y="0.591173" width="118.158" height="120.647" rx="59.0788" transform="matrix(-0.264645 0.964346 0.967421 -0.253175 37.8739 36.9978)" fill="url(#paint6_radial_1089_55036)"/>
<rect x="0.584195" y="0.591173" width="118.158" height="120.647" rx="59.0788" transform="matrix(-0.264645 0.964346 0.967421 -0.253175 37.8739 36.9978)" stroke="url(#paint7_linear_1089_55036)" stroke-width="1.66253"/>
<rect x="0.584195" y="0.591173" width="118.158" height="120.647" rx="59.0788" transform="matrix(-0.264645 0.964346 0.967421 -0.253175 37.8739 36.9978)" stroke="url(#paint8_linear_1089_55036)" stroke-width="1.66253"/>
<g filter="url(#filter0_i_1089_55036)">
<path d="M71.7052 76.4706L79.9351 65.8893C80.2348 65.5041 80.8624 65.2516 81.3369 65.3254L89.5498 66.603C90.0244 66.6768 90.1662 67.049 89.8665 67.4342L81.6366 78.0155C79.948 80.1866 77.7714 82.1605 75.2949 83.8616C74.8108 84.1942 74.7996 84.6679 75.2914 84.7452L78.7374 85.2913C83.4388 86.0226 89.6503 83.5295 92.6111 79.7226L100.841 69.1414C101.141 68.7561 101.768 68.5036 102.243 68.5774L110.456 69.855C110.93 69.9288 111.072 70.301 110.772 70.6863L102.543 81.2675C96.1273 89.5156 82.6691 94.9175 72.4827 93.333L68.5155 92.7159C68.041 92.642 67.8992 92.2699 68.1988 91.8846L72.7577 86.0232C72.979 85.7387 72.5777 85.5556 72.1994 85.7629C65.7533 89.2947 58.5277 91.1622 52.0924 90.1611L50.0115 89.8374C49.536 89.7635 49.3947 89.39 49.6963 89.0042L53.7793 83.7807C54.4967 82.8629 54.1344 81.9901 53.1752 81.6252C49.3199 80.1586 48.4087 76.3802 51.3899 72.5473L53.373 70.0015C53.6728 69.6166 54.3001 69.3644 54.7743 69.4382L62.9872 70.7158C63.4621 70.7896 63.6037 71.1622 63.3034 71.5476L61.3213 74.0922C61.3214 74.0925 61.3216 74.0928 61.3217 74.0932C61.3219 74.0935 61.322 74.0938 61.3222 74.094C61.3225 74.0945 61.3227 74.0949 61.3229 74.0951C61.3227 74.0949 61.3222 74.0945 61.3215 74.0941C61.3212 74.0938 61.3208 74.0936 61.3204 74.0933C61.3197 74.0943 61.3192 74.095 61.3188 74.0956C61.3182 74.0963 61.3179 74.0968 61.3177 74.0971L61.3176 74.0972C61.3176 74.0972 61.3179 74.0968 61.318 74.0965L61.3182 74.0961L55.9933 80.9425C55.6826 81.342 55.8306 81.728 56.324 81.8048L58.347 82.1195C63.0484 82.8508 68.7444 80.2774 71.7052 76.4706Z" fill="url(#paint9_linear_1089_55036)"/>
</g>
</g>
<path d="M14.0094 83.0014L16.2583 89.607C17.6945 93.8255 15.8793 98.4847 12.004 100.523L8 102.808L12.3732 101.407C16.4834 99.9329 21.023 101.796 23.0089 105.773L26.1192 112L23.8704 105.394C22.4341 101.176 24.2494 96.5168 28.1247 94.4786L32 92.2495L27.7555 93.593C23.6452 95.0671 19.1056 93.204 17.1197 89.2266L14.0094 83V83.0014Z" fill="#479339"/>
<defs>
<filter id="filter0_i_1089_55036" x="49.5377" y="65.3125" width="61.3918" height="29.0197" filterUnits="userSpaceOnUse" color-interpolation-filters="sRGB">
<feFlood flood-opacity="0" result="BackgroundImageFix"/>
<feBlend mode="normal" in="SourceGraphic" in2="BackgroundImageFix" result="shape"/>
<feColorMatrix in="SourceAlpha" type="matrix" values="0 0 0 0 0 0 0 0 0 0 0 0 0 0 0 0 0 0 127 0" result="hardAlpha"/>
<feOffset dy="2.16852"/>
<feGaussianBlur stdDeviation="0.361421"/>
<feComposite in2="hardAlpha" operator="arithmetic" k2="-1" k3="1"/>
<feColorMatrix type="matrix" values="0 0 0 0 0.148971 0 0 0 0 0.302572 0 0 0 0 0.278941 0 0 0 1 0"/>
<feBlend mode="normal" in2="shape" result="effect1_innerShadow_1089_55036"/>
</filter>
<linearGradient id="paint0_linear_1089_55036" x1="61.218" y1="164.426" x2="183.529" y2="30.1818" gradientUnits="userSpaceOnUse">
<stop offset="0.0298615"/>
<stop offset="0.0689637" stop-color="#142E2A"/>
<stop offset="0.117297" stop-color="#5B6D6A"/>
<stop offset="0.357888" stop-color="#AEC3A3"/>
<stop offset="0.532047" stop-color="#5B6D6A"/>
<stop offset="0.557944" stop-color="#AEC3A3"/>
<stop offset="0.585383" stop-color="#5D6C55"/>
<stop offset="0.625647" stop-color="#5D6C55"/>
<stop offset="0.677455" stop-color="#142E2A"/>
<stop offset="0.724833" stop-color="#5B6D6A"/>
<stop offset="0.765276" stop-color="#5D6C55"/>
<stop offset="0.81218" stop-color="#AEC3A3"/>
<stop offset="0.831945" stop-color="#CDE1C3"/>
<stop offset="0.839783" stop-color="white"/>
</linearGradient>
<linearGradient id="paint1_linear_1089_55036" x1="59.8137" y1="161.969" x2="182.125" y2="27.7248" gradientUnits="userSpaceOnUse">
<stop offset="0.0298615"/>
<stop offset="0.0689637" stop-color="#142E2A"/>
<stop offset="0.117297" stop-color="#5B6D6A"/>
<stop offset="0.357888" stop-color="#AEC3A3"/>
<stop offset="0.532047" stop-color="#5B6D6A"/>
<stop offset="0.557944" stop-color="#AEC3A3"/>
<stop offset="0.585383" stop-color="#5D6C55"/>
<stop offset="0.625647" stop-color="#5D6C55"/>
<stop offset="0.677455" stop-color="#142E2A"/>
<stop offset="0.724833" stop-color="#5B6D6A"/>
<stop offset="0.765276" stop-color="#5D6C55"/>
<stop offset="0.81218" stop-color="#AEC3A3"/>
<stop offset="0.831945" stop-color="#CDE1C3"/>
<stop offset="0.839783" stop-color="white"/>
</linearGradient>
<linearGradient id="paint2_linear_1089_55036" x1="111.837" y1="47.7765" x2="31.9017" y2="136.743" gradientUnits="userSpaceOnUse">
<stop offset="0.0298615"/>
<stop offset="0.0689637" stop-color="#142E2A"/>
<stop offset="0.117297" stop-color="#5B6D6A"/>
<stop offset="0.532047" stop-color="#3F5753"/>
<stop offset="0.557944" stop-color="#5B6D6A"/>
<stop offset="0.585383" stop-color="#3F5753"/>
<stop offset="0.625647" stop-color="#142E2A"/>
<stop offset="0.677455" stop-color="#0C1C1A"/>
<stop offset="0.724833" stop-color="#142E2A"/>
<stop offset="0.765276" stop-color="#3F5753"/>
<stop offset="0.81218" stop-color="#5B6D6A"/>
<stop offset="0.878837" stop-color="#809692"/>
<stop offset="0.914219" stop-color="#DCEAD5"/>
<stop offset="0.932061" stop-color="white"/>
</linearGradient>
<radialGradient id="paint3_radial_1089_55036" cx="0" cy="0" r="1" gradientUnits="userSpaceOnUse" gradientTransform="translate(-1.98383 94.0325) rotate(-59.0121) scale(139.935 470.185)">
<stop stop-color="white"/>
<stop offset="0.134042" stop-color="#CDE1C3"/>
<stop offset="0.331547" stop-color="#5B6D6A"/>
<stop offset="0.518827" stop-color="#326C62"/>
<stop offset="0.716546" stop-color="#193833"/>
<stop offset="0.887916" stop-color="#0A372F"/>
<stop offset="1"/>
</radialGradient>
<linearGradient id="paint4_linear_1089_55036" x1="104.499" y1="59.4933" x2="131.363" y2="43.245" gradientUnits="userSpaceOnUse">
<stop stop-color="#CDE1C3" stop-opacity="0"/>
<stop offset="1" stop-color="#CDE1C3"/>
</linearGradient>
<linearGradient id="paint5_linear_1089_55036" x1="5.34017" y1="31.8234" x2="46.2263" y2="49.4636" gradientUnits="userSpaceOnUse">
<stop stop-color="white"/>
<stop offset="0.398028" stop-color="#C8FFE1"/>
<stop offset="1" stop-color="#53BE6B" stop-opacity="0"/>
</linearGradient>
<radialGradient id="paint6_radial_1089_55036" cx="0" cy="0" r="1" gradientUnits="userSpaceOnUse" gradientTransform="translate(-1.83699 87.0721) rotate(-59.0121) scale(129.577 435.381)">
<stop stop-color="white"/>
<stop offset="0.134042" stop-color="#CDE1C3"/>
<stop offset="0.331547" stop-color="#5B6D6A"/>
<stop offset="0.518827" stop-color="#326C62"/>
<stop offset="0.716546" stop-color="#193833"/>
<stop offset="0.887916" stop-color="#0A372F"/>
<stop offset="1"/>
</radialGradient>
<linearGradient id="paint7_linear_1089_55036" x1="96.7642" y1="55.0895" x2="121.639" y2="40.0439" gradientUnits="userSpaceOnUse">
<stop stop-color="#CDE1C3" stop-opacity="0"/>
<stop offset="1" stop-color="#CDE1C3"/>
</linearGradient>
<linearGradient id="paint8_linear_1089_55036" x1="4.94489" y1="29.4678" x2="42.8045" y2="45.8023" gradientUnits="userSpaceOnUse">
<stop stop-color="white"/>
<stop offset="0.398028" stop-color="#C8FFE1"/>
<stop offset="1" stop-color="#53BE6B" stop-opacity="0"/>
</linearGradient>
<linearGradient id="paint9_linear_1089_55036" x1="45.0952" y1="87.911" x2="44.7815" y2="62.7115" gradientUnits="userSpaceOnUse">
<stop stop-color="white"/>
<stop offset="1" stop-color="white" stop-opacity="0.5"/>
</linearGradient>
</defs>
</svg>
