<svg xmlns="http://www.w3.org/2000/svg" width="104" height="96" viewBox="0 0 104 96" fill="none">
  <path opacity="0.5" d="M58.667 80H69.3337C72.1626 80 74.8757 78.8762 76.8761 76.8758C78.8765 74.8754 80.0003 72.1623 80.0003 69.3334C80.0003 66.5044 78.8765 63.7913 76.8761 61.7909C74.8757 59.7905 72.1626 58.6667 69.3337 58.6667H53.3337C50.1337 58.6667 47.467 59.7334 45.867 61.8667L16.0003 90.6667M37.3337 112L45.867 104.533C47.467 102.4 50.1337 101.333 53.3337 101.333H74.667C80.5337 101.333 85.867 99.2 89.6003 94.9334L114.134 71.4667C116.192 69.5218 117.393 66.8389 117.473 64.0084C117.553 61.1778 116.505 58.4314 114.56 56.3734C112.615 54.3153 109.933 53.1141 107.102 53.0341C104.271 52.9541 101.525 54.0018 99.467 55.9467L77.067 76.7467M10.667 85.3334L42.667 117.333M100.8 48C100.8 56.542 93.8757 63.4667 85.3337 63.4667C76.7917 63.4667 69.867 56.542 69.867 48C69.867 39.458 76.7917 32.5334 85.3337 32.5334C93.8757 32.5334 100.8 39.458 100.8 48ZM48.0003 26.6667C48.0003 35.5032 40.8369 42.6667 32.0003 42.6667C23.1638 42.6667 16.0003 35.5032 16.0003 26.6667C16.0003 17.8301 23.1638 10.6667 32.0003 10.6667C40.8369 10.6667 48.0003 17.8301 48.0003 26.6667Z" stroke="url(#paint0_linear_95_49549)" stroke-width="6" stroke-linecap="round" stroke-linejoin="round"/>
  <defs>
    <linearGradient id="paint0_linear_95_49549" x1="64.0721" y1="10.6667" x2="64.0721" y2="117.333" gradientUnits="userSpaceOnUse">
      <stop stop-color="#54B342" stop-opacity="0.8"/>
      <stop offset="1" stop-color="#244D1C" stop-opacity="0.2"/>
    </linearGradient>
  </defs>
</svg>