<svg xmlns="http://www.w3.org/2000/svg" width="104" height="96" viewBox="0 0 104 96" fill="none">
  <path opacity="0.5" d="M37.3333 53.3333V37.3333C37.3333 30.2609 40.1428 23.4781 45.1438 18.4771C50.1448 13.4762 56.9276 10.6667 64 10.6667C71.0724 10.6667 77.8552 13.4762 82.8562 18.4771C87.8572 23.4781 90.6667 30.2609 90.6667 37.3333V53.3333M69.3333 85.3333C69.3333 88.2788 66.9455 90.6667 64 90.6667C61.0545 90.6667 58.6667 88.2788 58.6667 85.3333C58.6667 82.3878 61.0545 80 64 80C66.9455 80 69.3333 82.3878 69.3333 85.3333ZM26.6667 53.3333H101.333C107.224 53.3333 112 58.109 112 64V106.667C112 112.558 107.224 117.333 101.333 117.333H26.6667C20.7756 117.333 16 112.558 16 106.667V64C16 58.109 20.7756 53.3333 26.6667 53.3333Z" stroke="url(#paint0_linear_95_49530)" stroke-width="6" stroke-linecap="round" stroke-linejoin="round"/>
  <defs>
    <linearGradient id="paint0_linear_95_49530" x1="64" y1="10.6667" x2="64" y2="117.333" gradientUnits="userSpaceOnUse">
      <stop stop-color="#54B342" stop-opacity="0.8"/>
      <stop offset="1" stop-color="#244D1C" stop-opacity="0.2"/>
    </linearGradient>
  </defs>
</svg>